<?xml version="1.0" encoding="UTF-8"?>
<svg width="18px" height="18px" viewBox="0 0 18 18" version="1.1" xmlns="http://www.w3.org/2000/svg" xmlns:xlink="http://www.w3.org/1999/xlink">
    <!-- Generator: Sketch 46 (44423) - http://www.bohemiancoding.com/sketch -->
    <title>slack (1)</title>
    <desc>Created with Sketch.</desc>
    <defs></defs>
    <g id="Final" stroke="none" stroke-width="1" fill="none" fill-rule="evenodd" opacity="1">
        <g id="Desktop-HD" transform="translate(-1088.000000, -47.000000)" fill="#FFFFFF">
            <g id="Header">
                <g id="Navigation" transform="translate(250.000000, 0.000000)">
                    <g id="Group-4" transform="translate(838.000000, 47.000000)">
                        <g id="slack-(1)">
                            <rect id="Rectangle-12" opacity="0" x="0" y="0" width="18" height="18"></rect>
                            <polygon id="Shape" points="7 7.76898048 7.73222497 10 10 9.22342733 9.26777503 7 7 7.78091106"></polygon>
                            <path d="M14.1187069,10.5411758 L12.9520718,10.9315542 L13.3570753,12.1386897 C13.5202017,12.6269439 13.2558244,13.1556985 12.7675702,13.31995 C12.6550692,13.3537003 12.5538183,13.3705754 12.4413173,13.3672004 C12.058814,13.3559503 11.710061,13.1129482 11.5750598,12.7304448 L11.1700563,11.5244344 L8.76253539,12.3299414 L9.16753891,13.5359518 C9.32504028,14.0253311 9.06628803,14.5540857 8.57128373,14.7172121 C8.45878276,14.7532124 8.35753188,14.7678375 8.2450309,14.7655875 C7.86252758,14.7543374 7.51377455,14.5113353 7.37877338,14.128832 L6.97376986,12.9138214 L5.8037597,13.3075749 C5.69125873,13.3413251 5.59000785,13.3525752 5.47750687,13.3525752 C5.09500355,13.3413251 4.74625052,13.093823 4.61124935,12.7113197 C4.44249788,12.2163154 4.71250023,11.6875608 5.19625443,11.5300594 L6.36626459,11.136306 L5.62488315,8.81991089 L4.46162305,9.21366431 C4.35587213,9.24966462 4.2478712,9.26428975 4.14099527,9.26203973 C3.76974204,9.25078963 3.40973892,9.00891253 3.28598784,8.62640921 C3.12848648,8.13927998 3.38723872,7.61052539 3.88224302,7.44514896 L5.05225318,7.05589558 L4.64724966,5.85213512 C4.4897483,5.36163087 4.74850054,4.83287627 5.24350484,4.67087487 C5.73850914,4.50549843 6.26726373,4.77212575 6.4247651,5.25812997 L6.82976861,6.46414044 L9.22491441,5.65863344 L8.81991089,4.45487299 C8.66240952,3.97111879 8.92116177,3.4423642 9.41166603,3.27361274 C9.90104528,3.11611137 10.4309249,3.37486362 10.5929263,3.86761789 L10.9979298,5.08262844 L12.1645649,4.70012512 C12.6528192,4.5358737 13.1815738,4.801376 13.3458252,5.2851302 C13.5089516,5.77563446 13.2445743,6.30438905 12.7574451,6.46639046 L11.5896849,6.86014388 L12.3659417,9.17428897 L13.5292018,8.78728561 C14.018581,8.62978424 14.5473356,8.88853649 14.710462,9.38354079 C14.8747135,9.87854508 14.6092112,10.4072997 14.125457,10.564801 L14.1187069,10.5411758 Z M17.2462341,6.52489097 C15.3899679,0.341837281 12.7101947,-1.10267526 6.52489097,0.753590856 C0.341837281,2.60985697 -1.10267526,5.28738022 0.753590856,11.4749339 C2.60985697,17.6591126 5.28738022,19.1025002 11.4749339,17.2462341 C17.6591126,15.3899679 19.1025002,12.7124447 17.2462341,6.52489097 L17.2462341,6.52489097 Z" id="Shape"></path>
                        </g>
                    </g>
                </g>
            </g>
        </g>
    </g>
</svg>
