<?xml version="1.0" encoding="UTF-8"?>
<svg width="18px" height="18px" viewBox="0 0 18 18" version="1.1" xmlns="http://www.w3.org/2000/svg" xmlns:xlink="http://www.w3.org/1999/xlink">
    <!-- Generator: Sketch 46 (44423) - http://www.bohemiancoding.com/sketch -->
    <title>facebook (1)</title>
    <desc>Created with Sketch.</desc>
    <defs></defs>
    <g id="Final" stroke="none" stroke-width="1" fill="none" fill-rule="evenodd" opacity="1">
        <g id="Desktop-HD" transform="translate(-1144.000000, -47.000000)" fill="#FFFFFF">
            <g id="Header">
                <g id="Navigation" transform="translate(250.000000, 0.000000)">
                    <g id="Group-4" transform="translate(838.000000, 47.000000)">
                        <g id="facebook-(1)" transform="translate(56.000000, 0.000000)">
                            <path d="M17.006625,0 L0.993375,0 C0.444375,0 0,0.444375 0,0.993375 L0,17.006625 C0,17.555625 0.444375,18 0.993375,18 L9.61425,18 L9.61425,11.0295 L7.2675,11.0295 L7.2675,8.31375 L9.61425,8.31375 L9.61425,6.307875 C9.61425,3.983625 11.034,2.719125 13.1085,2.719125 C14.101875,2.719125 14.95575,2.791125 15.204375,2.824875 L15.204375,5.254875 L13.764375,5.254875 C12.639375,5.254875 12.42,5.794875 12.42,6.582375 L12.42,8.314875 L15.10875,8.314875 L14.76,11.037375 L12.42,11.037375 L12.42,18 L17.006625,18 C17.555625,18 18,17.555625 18,17.006625 L18,0.993375 C18,0.444375 17.555625,0 17.006625,0" id="Shape"></path>
                        </g>
                    </g>
                </g>
            </g>
        </g>
    </g>
</svg>
