<?xml version="1.0" encoding="UTF-8"?>
<svg width="18px" height="14px" viewBox="0 0 18 14" version="1.1" xmlns="http://www.w3.org/2000/svg" xmlns:xlink="http://www.w3.org/1999/xlink">
    <!-- Generator: Sketch 46 (44423) - http://www.bohemiancoding.com/sketch -->
    <title>twitter (1)</title>
    <desc>Created with Sketch.</desc>
    <defs></defs>
    <g id="Final" stroke="none" stroke-width="1" fill="none" fill-rule="evenodd" opacity="1">
        <g id="Desktop-HD" transform="translate(-1116.000000, -49.000000)" fill="#FFFFFF">
            <g id="Header">
                <g id="Navigation" transform="translate(250.000000, 0.000000)">
                    <g id="Group-4" transform="translate(838.000000, 47.000000)">
                        <g id="twitter-(1)" transform="translate(27.000000, 0.000000)">
                            <rect id="Rectangle-12" opacity="0" x="0" y="0" width="18" height="18"></rect>
                            <path d="M18.1197281,3.65301041 C17.4876085,3.93046858 16.8126333,4.11935356 16.1001595,4.20472531 C16.82549,3.77039656 17.3836837,3.08422116 17.6461741,2.2667867 C16.9669133,2.66163102 16.2137267,2.94976066 15.4123276,3.10983268 C14.7716368,2.42685872 13.8588132,2 12.8452791,2 C10.9039218,2 9.32897968,3.56870581 9.32897968,5.50024154 C9.32897968,5.77769971 9.36112136,6.04448641 9.42004776,6.30060164 C6.49729801,6.16187256 3.90560752,4.76391024 2.1710284,2.65095955 C1.86675387,3.16425717 1.69533159,3.76185938 1.69533159,4.41281894 C1.69533159,5.6293663 2.31673733,6.69971455 3.25955983,7.32826402 C2.68315244,7.31012252 2.13995811,7.1521848 1.66640409,6.89073383 L1.66640409,6.9334197 C1.66640409,8.63018313 2.87707389,10.0473541 4.48737186,10.3696324 C4.19166844,10.4486013 3.88096557,10.4912872 3.5606202,10.4912872 C3.33562847,10.4912872 3.12135063,10.4699442 2.90707279,10.4293926 C3.35705625,11.8209521 4.65343719,12.8336744 6.19623765,12.8624874 C4.99628174,13.8015766 3.47490906,14.3607615 1.83568358,14.3607615 C1.55712239,14.3607615 1.27856119,14.3447543 1,14.3127399 C2.56422824,15.3051864 4.40701767,15.8857143 6.39980159,15.8857143 C12.8709924,15.8857143 16.4065768,10.5499802 16.4065768,5.92923455 C16.4065768,5.779834 16.4065768,5.63043345 16.3958629,5.48103289 C17.081552,4.99014536 17.6815299,4.37120021 18.1529412,3.66688332 L18.1197281,3.65301041 Z" id="Shape"></path>
                        </g>
                    </g>
                </g>
            </g>
        </g>
    </g>
</svg>
