<?xml version="1.0" encoding="UTF-8"?>
<svg width="13px" height="187px" viewBox="0 0 13 187" version="1.1" xmlns="http://www.w3.org/2000/svg" xmlns:xlink="http://www.w3.org/1999/xlink">
    <!-- Generator: Sketch 46 (44423) - http://www.bohemiancoding.com/sketch -->
    <title>Group 2</title>
    <desc>Created with Sketch.</desc>
    <defs>
        <linearGradient x1="50%" y1="9.08046457%" x2="50%" y2="91.5441176%" id="linearGradient-1">
            <stop stop-color="#A2ACE7" offset="0%"></stop>
            <stop stop-color="#9AD7FB" offset="52.4154974%"></stop>
            <stop stop-color="#8FDDBA" offset="100%"></stop>
        </linearGradient>
    </defs>
    <g id="Final" stroke="none" stroke-width="1" fill="none" fill-rule="evenodd">
        <g id="Desktop-HD" transform="translate(-714.000000, -1389.000000)" stroke="url(#linearGradient-1)" stroke-width="3">
            <g id="Group-2" transform="translate(714.000000, 1389.000000)">
                <path d="M6.5,40.5 C9.26142375,40.5 11.5,38.2614237 11.5,35.5 C11.5,32.7385763 9.26142375,30.5 6.5,30.5 C3.73857625,30.5 1.5,32.7385763 1.5,35.5 C1.5,38.2614237 3.73857625,40.5 6.5,40.5 Z M6.5,11.5 C9.26142375,11.5 11.5,9.26142375 11.5,6.5 C11.5,3.73857625 9.26142375,1.5 6.5,1.5 C3.73857625,1.5 1.5,3.73857625 1.5,6.5 C1.5,9.26142375 3.73857625,11.5 6.5,11.5 Z M6.5,69.5 C9.26142375,69.5 11.5,67.2614237 11.5,64.5 C11.5,61.7385763 9.26142375,59.5 6.5,59.5 C3.73857625,59.5 1.5,61.7385763 1.5,64.5 C1.5,67.2614237 3.73857625,69.5 6.5,69.5 Z M6.5,98.5 C9.26142375,98.5 11.5,96.2614237 11.5,93.5 C11.5,90.7385763 9.26142375,88.5 6.5,88.5 C3.73857625,88.5 1.5,90.7385763 1.5,93.5 C1.5,96.2614237 3.73857625,98.5 6.5,98.5 Z M6.5,127.5 C9.26142375,127.5 11.5,125.261424 11.5,122.5 C11.5,119.738576 9.26142375,117.5 6.5,117.5 C3.73857625,117.5 1.5,119.738576 1.5,122.5 C1.5,125.261424 3.73857625,127.5 6.5,127.5 Z M6.5,156.5 C9.26142375,156.5 11.5,154.261424 11.5,151.5 C11.5,148.738576 9.26142375,146.5 6.5,146.5 C3.73857625,146.5 1.5,148.738576 1.5,151.5 C1.5,154.261424 3.73857625,156.5 6.5,156.5 Z M6.5,185.5 C9.26142375,185.5 11.5,183.261424 11.5,180.5 C11.5,177.738576 9.26142375,175.5 6.5,175.5 C3.73857625,175.5 1.5,177.738576 1.5,180.5 C1.5,183.261424 3.73857625,185.5 6.5,185.5 Z" id="Combined-Shape"></path>
            </g>
        </g>
    </g>
</svg>