<?xml version="1.0" encoding="UTF-8"?>
<svg width="18px" height="18px" viewBox="0 0 18 18" version="1.1" xmlns="http://www.w3.org/2000/svg" xmlns:xlink="http://www.w3.org/1999/xlink">
    <!-- Generator: Sketch 46 (44423) - http://www.bohemiancoding.com/sketch -->
    <title>telegram</title>
    <desc>Created with Sketch.</desc>
    <defs></defs>
    <g id="Final" stroke="none" stroke-width="1" fill="none" fill-rule="evenodd" opacity="1">
        <g id="Desktop-HD" transform="translate(-1172.000000, -47.000000)" fill="#FFFFFF">
            <g id="Header">
                <g id="Navigation" transform="translate(250.000000, 0.000000)">
                    <g id="Group-4" transform="translate(838.000000, 47.000000)">
                        <g id="telegram" transform="translate(84.000000, 0.000000)">
                            <rect id="Rectangle-12" opacity="0" x="0" y="0" width="18" height="18"></rect>
                            <path d="M14.4743251,12.0261929 C15.1253355,10.2711985 17.5123736,3.59996963 17.8938428,1.85172517 C18.3278498,-0.128268544 17.4210037,-0.319517937 15.3583287,0.344229957 C13.2967958,1.00797785 8.00876399,2.93734673 7.11790767,3.24897074 C6.22705134,3.56059475 1.89497694,4.9949652 0.996125746,5.42246384 C-0.838124583,6.39221076 0.0538738648,7.87158107 2.10398553,8.63995363 C8.23718869,11.5390694 6.49545037,10.0619491 9.23312038,15.4259321 C9.79618726,16.7961777 11.1244769,19.1305453 12.3968025,17.3654259 C13.0660868,16.3619291 13.9615116,13.4054385 14.4754672,12.0250679 L14.4743251,12.0261929 Z" id="Shape"></path>
                        </g>
                    </g>
                </g>
            </g>
        </g>
    </g>
</svg>
