
<svg width="136px" height="48px" viewBox="0 0 136 48" version="1.1" xmlns="http://www.w3.org/2000/svg" xmlns:xlink="http://www.w3.org/1999/xlink">
    <!-- Generator: Sketch 46 (44423) - http://www.bohemiancoding.com/sketch -->
    <desc>Created with Sketch.</desc>
    <defs>
        <linearGradient x1="0%" y1="50%" x2="85.710285%" y2="50%" id="linearGradient-1">
            <stop stop-color="#FFFFFF" stop-opacity="0.15" offset="0%"></stop>
            <stop stop-color="#FFFFFF" offset="100%"></stop>
        </linearGradient>
    </defs>
    <g id="Final" stroke="none" stroke-width="1" fill="none" fill-rule="evenodd">
        <g id="Desktop-HD" transform="translate(-250.000000, -32.000000)">
            <g id="Header">
                <g id="Navigation" transform="translate(250.000000, 0.000000)">
                    <g id="Logo" transform="translate(0.000000, 32.000000)">
                        <path d="M84.904,9.384 L84.904,30.974 C84.904,32.504 85.006,33.626 85.04,34 L80.076,34 C80.042,33.796 79.94,33.048 79.94,32.368 C79.158,33.524 77.458,34.374 75.418,34.374 C70.658,34.374 67.054,30.702 67.054,25.5 C67.054,20.468 70.454,16.694 75.248,16.694 C78.138,16.694 79.396,17.782 79.804,18.428 L79.804,9.384 L84.904,9.384 Z M72.256,25.534 C72.256,28.322 74.058,29.75 76.064,29.75 C78.07,29.75 79.872,28.322 79.872,25.534 C79.872,22.712 78.07,21.352 76.064,21.352 C74.058,21.352 72.256,22.712 72.256,25.534 Z M100.442,34 L105.406,34 C105.372,33.728 105.236,32.504 105.236,30.974 L105.236,17.102 L100.068,17.102 L100.068,26.724 C100.068,28.424 98.98,29.614 97.246,29.614 C95.41,29.614 94.526,28.322 94.526,26.69 L94.526,17.102 L89.358,17.102 L89.358,27.778 C89.358,31.382 91.67,34.374 95.784,34.374 C97.484,34.374 99.422,33.762 100.306,32.3 C100.306,32.742 100.374,33.694 100.442,34 Z M108.398,29.206 C108.534,31.076 110.234,34.51 115.538,34.51 C120.06,34.51 122.27,31.688 122.27,28.798 C122.27,26.316 120.57,24.208 117.068,23.494 L114.824,23.052 C114.076,22.916 113.498,22.508 113.498,21.794 C113.498,20.91 114.348,20.332 115.334,20.332 C116.898,20.332 117.612,21.284 117.748,22.406 L122.032,21.624 C121.862,19.652 120.162,16.592 115.266,16.592 C111.492,16.592 108.772,19.108 108.772,22.202 C108.772,24.582 110.2,26.622 113.804,27.404 L115.742,27.846 C117,28.118 117.408,28.628 117.408,29.24 C117.408,29.988 116.762,30.702 115.436,30.702 C113.668,30.702 112.852,29.58 112.784,28.424 L108.398,29.206 Z M131.824,12.172 L127.2,12.172 L127.2,14.348 C127.2,15.912 126.35,17.102 124.582,17.102 L123.732,17.102 L123.732,21.624 L126.724,21.624 L126.724,28.866 C126.724,32.232 128.866,34.306 132.368,34.306 C134,34.306 134.85,33.932 135.054,33.83 L135.054,29.546 C134.748,29.614 134.238,29.716 133.694,29.716 C132.572,29.716 131.824,29.342 131.824,27.948 L131.824,21.624 L135.122,21.624 L135.122,17.102 L131.824,17.102 L131.824,12.172 Z" id="dust-copy" fill="#FFFFFF"></path>
                        <path d="M25.4061046,6.21650146 C24.6134409,6.21650146 23.8192956,5.91425214 23.2143031,5.30876576 C22.0028365,4.09828689 21.9919714,2.12428278 23.203438,0.913310029 C24.4139169,-0.297168848 26.3661906,-0.308034019 27.5761756,0.902444858 L27.597906,0.924175201 C28.8093726,2.13514795 28.8093726,4.09828689 27.597906,5.30876576 C26.9934073,5.91375827 26.1987682,6.21650146 25.4061046,6.21650146 Z M39.3431563,20.1540471 C38.5514804,20.1540471 37.7627678,19.8542671 37.1567875,19.2527317 L37.1103636,19.2063078 C35.8959337,17.9992861 35.8895134,16.036641 37.0970291,14.8217173 C38.3015815,13.6072874 40.266202,13.6008671 41.4811258,14.8078889 L41.5290313,14.8538189 C42.7429673,16.0608407 42.7488937,18.0234858 41.5423658,19.2384095 C40.9373733,19.8483407 40.1392771,20.1540471 39.3431563,20.1540471 Z M32.3741366,13.1850273 C31.5819668,13.1850273 30.7878215,12.882778 30.1823352,12.2772917 L30.1359112,12.2313616 C28.9254324,11.0203889 28.9254324,9.05724993 30.1359112,7.84677105 C31.3463901,6.63629217 33.3105168,6.63629217 34.5200079,7.84677105 L34.5669257,7.89270109 C35.7778985,9.10367384 35.7778985,11.0663189 34.5669257,12.2772917 C33.9624271,12.8822842 33.167788,13.1850273 32.3741366,13.1850273 Z M46.270197,27.1028181 C45.4780273,27.1028181 44.6853636,26.8035321 44.0833343,26.2010089 C43.1879454,25.30562 42.9484178,24.0062443 43.3731472,22.9004661 C43.5227903,22.4964793 43.7593547,22.1186677 44.0833343,21.7937003 C45.2933193,20.5837153 47.2455931,20.5728501 48.456072,21.7828351 L48.4792839,21.8045654 C49.6897628,23.0155382 49.6897628,24.9786771 48.4792839,26.1901437 C47.8718221,26.7980995 47.0712565,27.1028181 46.270197,27.1028181 Z M32.3287004,41.0556738 C31.5355429,41.0556738 30.7409038,40.7534245 30.136899,40.1479381 C28.9254324,38.9374592 28.9254324,36.9733326 30.136899,35.7628537 L30.1833229,35.7174175 C31.392814,34.5059509 33.3579285,34.5059509 34.5674196,35.7174175 C35.7778985,36.9278964 35.7778985,38.8910353 34.5674196,40.1015142 L34.5209957,40.1479381 C33.9155093,40.7534245 33.1208702,41.0556738 32.3287004,41.0556738 Z M39.2962386,34.0876418 C38.5040688,34.0876418 37.7094296,33.7858863 37.1044371,33.1804 C35.8939583,31.9694272 35.8939583,30.0057944 37.1044371,28.7953155 L37.1498733,28.7483977 C38.3598583,27.5389066 40.3244789,27.5389066 41.53397,28.7483977 C42.7449428,29.9588766 42.7449428,31.9230033 41.53397,33.1344699 L41.4885338,33.1804 C40.8840352,33.7848986 40.0908777,34.0876418 39.2962386,34.0876418 Z M25.3838803,48 C24.5917106,48 23.7970714,47.6982446 23.1920789,47.0917704 C21.9806123,45.8817854 21.9806123,43.9186465 23.1920789,42.7076737 C24.4025578,41.496701 26.3750803,41.485342 27.5855592,42.6968086 C28.7980135,43.9082752 28.8088787,45.860549 27.5964244,47.0700401 L27.574694,47.0917704 C26.9706892,47.6967629 26.1770379,48 25.3838803,48 Z M15.5879405,5.59669281 C14.9533157,5.59669281 14.3181971,5.35420194 13.8342031,4.87020793 C12.8657212,3.90172606 12.854856,2.32034974 13.8233379,1.35137399 C14.7913259,0.383879855 16.3514657,0.372520812 17.3199476,1.34050882 L17.341678,1.36223916 C18.3106537,2.33072104 18.3106537,3.90123219 17.341678,4.87020793 C16.857684,5.35420194 16.2230592,5.59669281 15.5879405,5.59669281 Z M29.5240045,19.5342385 C28.8928369,19.5342385 28.2591998,19.2937231 27.7766874,18.8131862 L27.7287819,18.7662684 C26.756349,17.8007497 26.7514103,16.2312263 27.7184106,15.2587935 C28.6839292,14.2873484 30.2539465,14.2814219 31.2258855,15.2479283 L31.273791,15.2938584 C32.24573,16.259377 32.2506687,17.8293943 31.2846562,18.8013333 C30.7981928,19.2892782 30.1615926,19.5342385 29.5240045,19.5342385 Z M22.5559725,12.5652187 C21.9213477,12.5652187 21.2862291,12.3232217 20.8022351,11.8387338 L20.756305,11.7928038 C19.7873293,10.823828 19.7873293,9.25381076 20.756305,8.28483501 C21.7237992,7.31635313 23.2957919,7.31635313 24.2637799,8.28483501 L24.30971,8.33076505 C25.277698,9.29924693 25.277698,10.8697581 24.30971,11.8387338 C23.8262098,12.3227278 23.1910912,12.5652187 22.5559725,12.5652187 Z M36.452033,26.4825156 C35.8174082,26.4825156 35.1852528,26.2439757 34.7032342,25.7619572 C33.9866268,25.0453498 33.7954986,24.0042688 34.135776,23.1192512 C34.254799,22.7947776 34.4449395,22.4920345 34.7032342,22.2312703 C35.6727039,21.2637762 37.2323498,21.252911 38.199844,22.2204052 L38.2220682,22.2421355 C39.1905501,23.2106174 39.1905501,24.7816224 38.2220682,25.7505982 C37.7346171,26.2385431 37.0920904,26.4825156 36.452033,26.4825156 Z M22.5105364,40.4358652 C21.8783809,40.4358652 21.2462255,40.1958436 20.7622315,39.7162945 C19.7907864,38.7492942 19.7853538,37.1787831 20.7508724,36.2078318 L20.7968025,36.1609141 C21.762815,35.189469 23.3328323,35.1840364 24.3047713,36.1500489 C25.2762164,37.1155675 25.2811551,38.6860787 24.3161303,39.6585115 L24.2702003,39.7049354 C23.7852185,40.1928804 23.1481244,40.4358652 22.5105364,40.4358652 Z M29.4780745,33.4678331 C28.8444375,33.4678331 28.2093188,33.22633 27.7243371,32.742336 C26.7553613,31.7723725 26.7553613,30.2008736 27.7243371,29.2338734 L27.770761,29.1874495 C28.7392428,28.2199553 30.3112356,28.2199553 31.2787297,29.1874495 C32.2477055,30.1564252 32.2477055,31.7274302 31.2787297,32.6959121 L31.231812,32.7433238 C30.7483118,33.22633 30.1126993,33.4678331 29.4780745,33.4678331 Z M15.566704,47.3801914 C14.9320792,47.3801914 14.2969606,47.1386882 13.8129666,46.6537065 C12.8439908,45.6847307 12.8439908,44.1142196 13.8129666,43.1457377 C14.7809546,42.1772558 16.3628248,42.1668845 17.3313067,43.1353664 C18.2997885,44.1043422 18.3111476,45.6630004 17.3421718,46.6319761 L17.3199476,46.6537065 C16.8359536,47.1386882 16.200835,47.3801914 15.566704,47.3801914 Z M7.96651658,4.97589642 C7.49042453,4.97589642 7.01433247,4.79464561 6.65133696,4.43115623 C5.92435822,3.70516523 5.91349305,2.51641669 6.64047179,1.79042569 C7.36547505,1.06443469 8.53298712,1.0520879 9.25996586,1.77956052 L9.28169621,1.80129086 C10.0081811,2.52728187 10.0081811,3.70516523 9.28169621,4.4316501 C8.9187007,4.79464561 8.44260864,4.97589642 7.96651658,4.97589642 Z M21.9030745,18.9134421 C21.4269824,18.9134421 20.9508904,18.7316974 20.5878949,18.368208 L20.5419648,18.322278 C19.81548,17.5957931 19.81548,16.4184036 20.5419648,15.6919187 C21.2684497,14.9654339 22.4458392,14.9654339 23.1723241,15.6919187 L23.2182541,15.7378488 C23.944739,16.4643336 23.944739,17.6417231 23.2182541,18.368208 C22.8547647,18.7316974 22.3786727,18.9134421 21.9030745,18.9134421 Z M14.9340547,11.9449162 C14.4579627,11.9449162 13.9823645,11.7636654 13.6188751,11.400176 L13.5729451,11.3537521 C12.8464602,10.6277611 12.8464602,9.44987771 13.5729451,8.72339284 C14.2994299,7.99690796 15.4768194,7.99690796 16.2033043,8.72339284 L16.2492344,8.76981675 C16.9757192,9.49580776 16.9757192,10.6736911 16.2492344,11.400176 C15.8862389,11.7636654 15.4101468,11.9449162 14.9340547,11.9449162 Z M28.8301152,25.8622131 C28.3550109,25.8622131 27.8813882,25.6839255 27.520862,25.3229055 C26.9820483,24.7840918 26.8363562,24.0022933 27.0936632,23.3380362 C27.1845356,23.0940637 27.3257828,22.8658951 27.520862,22.670322 C28.2463592,21.944331 29.4143651,21.9319843 30.14085,22.6594569 L30.1625803,22.6811872 C30.8895591,23.4071782 30.8895591,24.5845677 30.1625803,25.3115465 C29.7961277,25.6789868 29.3131214,25.8622131 28.8301152,25.8622131 Z M14.8881247,39.8160565 C14.4140081,39.8160565 13.9398915,39.6362873 13.5773899,39.2747734 C12.8484357,38.5507579 12.8444847,37.3733684 13.5689941,36.6444142 L13.6149241,36.5984841 C14.3389397,35.869036 15.5173169,35.8660728 16.2452834,36.5886067 C16.9742376,37.3131161 16.9776947,38.4914933 16.2536792,39.2194598 L16.2077492,39.2663776 C15.8447537,39.6333241 15.3661922,39.8160565 14.8881247,39.8160565 Z M21.8566506,32.8480245 C21.3805585,32.8480245 20.9044665,32.6662798 20.541471,32.3027904 C19.8149861,31.5763056 19.8149861,30.3989161 20.541471,29.6734189 L20.587401,29.6260073 C21.3138859,28.8995224 22.4912754,28.8995224 23.2177602,29.6260073 C23.9442451,30.3524922 23.9442451,31.5298816 23.2177602,32.2563665 L23.1718302,32.3027904 C22.8088347,32.6662798 22.3327426,32.8480245 21.8566506,32.8480245 Z M7.94478624,46.759395 C7.46869418,46.759395 6.99260212,46.578638 6.62960662,46.2141609 C5.90262787,45.4871822 5.90262787,44.3107804 6.62960662,43.5842955 C7.35510375,42.8573168 8.54484003,42.8469455 9.27083103,43.5734304 C9.99731591,44.300903 10.0081811,45.4664396 9.28169621,46.1934183 L9.25996586,46.2156425 C8.89647649,46.578638 8.42038443,46.759395 7.94478624,46.759395 Z M1.26171804,4.35658165 C0.944158708,4.35658165 0.627093249,4.23558315 0.385096248,3.99358614 C-0.0993916255,3.50909827 -0.110256797,2.71297752 0.374231077,2.22898352 C0.857237336,1.74498952 1.63261548,1.7331366 2.11710336,2.21811835 L2.13833983,2.23935482 C2.62233383,2.72285495 2.62233383,3.5086044 2.13833983,3.99309227 C1.89634283,4.23508927 1.5787835,4.35658165 1.26171804,4.35658165 Z M15.1982759,18.2931396 C14.8821982,18.2931396 14.5661205,18.1736227 14.3246174,17.9331073 L14.2776996,17.8871772 C13.7917301,17.404171 13.7887669,16.6194093 14.2717731,16.1334398 C14.7552733,15.6479642 15.5410227,15.6450009 16.0255106,16.1275133 L16.0719345,16.1739372 C16.5583979,16.6569435 16.5608672,17.4417052 16.077861,17.9276747 C15.835864,18.1716472 15.516823,18.2931396 15.1982759,18.2931396 Z M8.23024393,11.3251075 C7.9126846,11.3251075 7.59561914,11.204109 7.35362214,10.9616182 L7.30719822,10.9151942 C6.82271035,10.4312002 6.82271035,9.64594467 7.30719822,9.1614568 C7.7916861,8.67696892 8.5764478,8.67696892 9.06093568,9.1614568 L9.10735959,9.20788071 C9.59184746,9.69187471 9.59184746,10.4771303 9.10735959,10.9616182 C8.86437485,11.204109 8.54730939,11.3251075 8.23024393,11.3251075 Z M22.1258105,25.2433922 C21.8087451,25.2433922 21.4936551,25.1248631 21.2546213,24.8848415 C20.8926135,24.5248093 20.7953209,24.0017994 20.9696575,23.5583029 C21.0284282,23.3938437 21.1232515,23.2402497 21.2546213,23.1093738 C21.7381214,22.6253797 22.5134996,22.6135268 22.9969997,23.0985086 L23.0187301,23.1202389 C23.5027241,23.6037391 23.5027241,24.3899824 23.0187301,24.8739764 C22.7742637,25.1199243 22.4497902,25.2433922 22.1258105,25.2433922 Z M8.18382001,39.1962479 C7.86626068,39.1962479 7.5496891,39.0747555 7.30719822,38.8332524 C6.82271035,38.3497522 6.82271035,37.5644967 7.30719822,37.079021 L7.35362214,37.0325971 C7.83811001,36.549097 8.62237785,36.549097 9.10735959,37.0325971 C9.59184746,37.5165911 9.59184746,38.3028345 9.10735959,38.7863346 L9.06093568,38.8332524 C8.81795093,39.0742616 8.50088547,39.1962479 8.18382001,39.1962479 Z M15.1523459,32.2282159 C14.8347866,32.2282159 14.5177211,32.1067235 14.2757241,31.8647265 C13.7912362,31.3812263 13.7912362,30.594983 14.2757241,30.110989 L14.3216542,30.0640712 C14.8056482,29.5800772 15.5909037,29.5800772 16.0753916,30.0640712 C16.5593856,30.5480652 16.5593856,31.3343086 16.0753916,31.8178087 L16.0294616,31.8647265 C15.7869707,32.1067235 15.4694114,32.2282159 15.1523459,32.2282159 Z M1.2399877,46.1395863 C0.922428365,46.1395863 0.605362906,46.0190817 0.363365905,45.7770847 C-0.121121968,45.2935846 -0.121121968,44.508329 0.363365905,44.0233472 C0.846866036,43.5398471 1.64397453,43.5279942 2.12796853,44.0124821 C2.61196253,44.4969699 2.6228277,45.2713603 2.1388337,45.7553543 L2.11710336,45.7770847 C1.87411861,46.0190817 1.55705315,46.1395863 1.2399877,46.1395863 Z" id="Combined-Shape" fill="url(#linearGradient-1)" fill-rule="nonzero"></path>
                    </g>
                </g>
            </g>
        </g>
    </g>
</svg>
